<svg xmlns="http://www.w3.org/2000/svg" xmlns:xlink="http://www.w3.org/1999/xlink" width="1000" zoomAndPan="magnify" viewBox="0 0 750 749.999995" height="1000" preserveAspectRatio="xMidYMid meet" version="1.0"><defs><g/></defs><g fill="#ff1616" fill-opacity="1"><g transform="translate(39.500819, 456.376934)"><g><path d="M 7.578125 -111.640625 L 28.8125 -5.78125 L 8.15625 -1.640625 L -21.15625 -147.8125 L 7.65625 -153.578125 L 48.796875 -70.8125 L 31.25 -158.3125 L 51.703125 -162.421875 L 81.015625 -16.25 L 57.421875 -11.515625 Z M 7.578125 -111.640625 "/></g></g></g><g fill="#ff1616" fill-opacity="1"><g transform="translate(136.463576, 437.299804)"><g><path d="M 25.203125 -37.96875 C 25.921875 -32.613281 27.515625 -28.992188 29.984375 -27.109375 C 32.453125 -25.234375 35.519531 -24.539062 39.1875 -25.03125 C 42.84375 -25.519531 45.613281 -27 47.5 -29.46875 C 49.394531 -31.9375 49.984375 -35.847656 49.265625 -41.203125 L 38.5625 -121 C 37.851562 -126.34375 36.257812 -129.957031 33.78125 -131.84375 C 31.300781 -133.726562 28.234375 -134.425781 24.578125 -133.9375 C 20.910156 -133.445312 18.132812 -131.960938 16.25 -129.484375 C 14.375 -127.015625 13.789062 -123.109375 14.5 -117.765625 Z M -8.515625 -113.171875 C -10.117188 -125.128906 -8.320312 -134.710938 -3.125 -141.921875 C 2.0625 -149.140625 10.351562 -153.515625 21.75 -155.046875 C 33.144531 -156.566406 42.296875 -154.53125 49.203125 -148.9375 C 56.117188 -143.351562 60.378906 -134.582031 61.984375 -122.625 L 72.296875 -45.796875 C 73.898438 -33.828125 72.101562 -24.234375 66.90625 -17.015625 C 61.707031 -9.804688 53.410156 -5.441406 42.015625 -3.921875 C 30.617188 -2.390625 21.46875 -4.414062 14.5625 -10 C 7.65625 -15.59375 3.398438 -24.375 1.796875 -36.34375 Z M -8.515625 -113.171875 "/></g></g></g><g fill="#ff1616" fill-opacity="1"><g transform="translate(227.964878, 425.241348)"><g><path d="M -1.9375 -149.3125 L 35.03125 -151.90625 C 46.78125 -152.726562 55.738281 -150.222656 61.90625 -144.390625 C 68.082031 -138.566406 71.59375 -129.628906 72.4375 -117.578125 L 77.71875 -42.375 C 78.5625 -30.332031 76.332031 -20.992188 71.03125 -14.359375 C 65.738281 -7.734375 57.21875 -4.007812 45.46875 -3.1875 L 8.5 -0.59375 Z M 22.9375 -129.703125 L 30.390625 -23.484375 L 43.5625 -24.40625 C 47.238281 -24.664062 50.0625 -25.929688 52.03125 -28.203125 C 54.007812 -30.484375 54.8125 -34.3125 54.4375 -39.6875 L 49.015625 -117.015625 C 48.628906 -122.398438 47.300781 -126.078125 45.03125 -128.046875 C 42.757812 -130.023438 39.785156 -130.882812 36.109375 -130.625 Z M 22.9375 -129.703125 "/></g></g></g><g fill="#ff1616" fill-opacity="1"><g transform="translate(322.70172, 418.974374)"><g><path d="M 31.203125 -86.53125 L 63.359375 -86.8125 L 63.546875 -65.515625 L 31.390625 -65.234375 L 31.765625 -21.578125 L 72.21875 -21.921875 L 72.40625 -0.625 L 8.515625 -0.078125 L 7.21875 -149.15625 L 71.109375 -149.703125 L 71.296875 -128.40625 L 30.84375 -128.0625 Z M 31.203125 -86.53125 "/></g></g></g><g fill="#ff1616" fill-opacity="1"><g transform="translate(409.358626, 418.529369)"><g><path d="M 35.90625 -81.203125 L 66.09375 -79.75 L 65.078125 -58.46875 L 34.890625 -59.921875 L 31.921875 1.546875 L 8.5 0.40625 L 15.6875 -148.5 L 77.609375 -145.515625 L 76.578125 -124.234375 L 38.078125 -126.078125 Z M 35.90625 -81.203125 "/></g></g></g><g fill="#ff1616" fill-opacity="1"><g transform="translate(490.905009, 422.707667)"><g><path d="M 23.8125 -147.40625 L 47.125 -145 L 33.96875 -17.90625 L 72.3125 -13.9375 L 70.125 7.25 L 8.46875 0.875 Z M 23.8125 -147.40625 "/></g></g></g><g fill="#ff1616" fill-opacity="1"><g transform="translate(571.558523, 431.600865)"><g><path d="M 30.296875 -146.21875 L 53.484375 -142.78125 L 31.609375 4.6875 L 8.421875 1.25 Z M 30.296875 -146.21875 "/></g></g></g><g fill="#ff1616" fill-opacity="1"><g transform="translate(620.191967, 438.380747)"><g><path d="M 114.265625 -129.140625 L 76.03125 -62.953125 L 86.65625 17.359375 L 62.4375 12.5 L 55.234375 -49.09375 L 24.640625 4.9375 L 3.125 0.625 L 43.875 -69.40625 L 34.078125 -145.21875 L 57.890625 -140.4375 L 64.4375 -83.09375 L 92.96875 -133.40625 Z M 114.265625 -129.140625 "/></g></g></g></svg>